<?xml version="1.0" encoding="utf-8"?>
<!-- Generator: Adobe Illustrator 17.0.0, SVG Export Plug-In . SVG Version: 6.00 Build 0)  -->
<!DOCTYPE svg PUBLIC "-//W3C//DTD SVG 1.1//EN" "http://www.w3.org/Graphics/SVG/1.1/DTD/svg11.dtd">
<svg version="1.1" id="图层_1" xmlns:ev="http://www.w3.org/2001/xml-events"
	 xmlns="http://www.w3.org/2000/svg" xmlns:xlink="http://www.w3.org/1999/xlink" x="0px" y="0px" width="322px" height="20px"
	 viewBox="0 0 322 20" enable-background="new 0 0 322 20" xml:space="preserve">
<path fill="#0C0C0C" d="M0,0h321.859v20H0C0,20,0,0,0,0z"/>
<path fill="#F6F9FA" d="M0,0h1v20H0V0z M321,0h1v20h-1V0z"/>
<path opacity="0.6" fill="#FFFFFF" enable-background="new    " d="M312.5,4.905V16.25h-8.104V4.905h2.431V4.5h3.241v0.405H312.5z
	 M285.961,16.047h11.345V4.702L285.961,16.047z M284.05,7.525c-4.595-4.26-11.773-3.989-16.033,0.607
	c2.822,2.617,8.32,7.713,8.32,7.713S282.26,9.457,284.05,7.525z"/>
<path fill="#FFFFFF" d="M43.094,8.803h2.039v1.367h-2.862c0,0-0.557-0.02-0.791-0.612l-0.633-1.256h-0.3v2.308h4.443l-0.648,1.758
	h0.743v2.575c0,0-0.064,0.786-1.17,0.786h-5.423v-1.256h4.665c0,0,0.112-0.037,0.11-0.11v-0.675h-1.329l0.396-1.57H37.59
	l-0.617,2.623c0,0-0.267,1.132-1.391,0.989h-1.487v-1.365h0.808c0,0,0.247-0.033,0.3-0.251l0.475-1.994h-1.581v-1.509h4.49v-2.31
	h-0.254L37.7,9.557c0,0-0.381,0.664-1.439,0.644h-2.118V8.803h1.929c0,0,0.247-0.015,0.348-0.22l0.095-0.282h-2.42V6.997h4.49V6.495
	h-4.538V5.08h9.108c0,0,0.124-0.026,0.158-0.188V4.641h1.771v0.832c0,0-0.112,1.02-1.502,1.02h-3.036V6.98h4.586V8.3h-2.466
	l0.142,0.345C42.809,8.646,42.911,8.803,43.094,8.803z M30.683,7.043l-0.902-1.131h-5.486l-0.918,1.289c0,0-0.16,0.173-0.379,0.173
	h-1.597V5.96h0.681c0,0,0.05,0,0.094-0.079l0.949-1.382h7.748l0.964,1.335c0,0,0.065,0.085,0.19,0.078h0.554v1.413h-1.502
	C31.077,7.327,30.853,7.327,30.683,7.043z M18.982,15.728h-2.403v-1.303h1.36c0.199,0,0.206-0.188,0.206-0.188v-2.215h-6.958
	l-0.411,0.518c-0.241,0.292-0.648,0.251-0.648,0.251H8.831v-1.492h0.364c0.203,0,0.269-0.125,0.269-0.125l0.648-1.068H9.274V4.595
	h10.593v4.492c-0.026,1.086-1.075,1.068-1.075,1.068h-6.609l-0.3,0.502h8.079v4.13C19.892,15.773,18.982,15.728,18.982,15.728z
	 M17.86,6.008h-6.767v0.738h6.767V6.008z M17.795,8.849c0,0,0.109-0.049,0.11-0.14V8.065H11.09v0.786L17.795,8.849L17.795,8.849z
	 M10.206,14.127l1.185-1.618h2.166l-2.197,2.858c0,0-0.367,0.315-0.823,0.267H8.782V14.33h1.17
	C9.954,14.33,10.096,14.299,10.206,14.127z M14.317,15.68H12.53v-1.303h0.727c0.221,0.001,0.333-0.173,0.333-0.173l1.297-1.586
	h2.214l-2.182,2.826C14.701,15.66,14.317,15.68,14.317,15.68z M32.532,14.315v1.413H21.496V14.33h1.091V8.111h1.629v6.204h1.866
	V6.886H27.9v2.057h4.538v1.507H27.9v3.863L32.532,14.315L32.532,14.315z"/>
<path fill="#FFFFFF" d="M280.587,11.267c-2.523-2.339-6.464-2.19-8.803,0.333c1.549,1.437,4.568,4.235,4.568,4.235
	S279.605,12.328,280.587,11.267z M285.944,16.047h5.963v-5.963L285.944,16.047z M312.5,16.25h-8.104v-5.749h8.104V16.25z"/>
<path fill="#FFFFFF" d="M152.077,11.76c0,1.144-0.264,2.039-0.793,2.687s-1.271,0.971-2.229,0.971c-0.953,0-1.698-0.325-2.235-0.974
	c-0.538-0.65-0.807-1.544-0.807-2.684V8.834c0-1.139,0.266-2.034,0.796-2.683s1.275-0.974,2.232-0.974
	c0.953,0,1.696,0.325,2.232,0.974s0.803,1.544,0.803,2.683v2.926H152.077z M151.707,8.834c0-1.002-0.23-1.801-0.69-2.396
	s-1.119-0.892-1.976-0.892c-0.861,0-1.52,0.297-1.976,0.892s-0.684,1.394-0.684,2.396v2.912c0,0.989,0.231,1.786,0.694,2.393
	s1.122,0.909,1.979,0.909c0.852,0,1.507-0.302,1.965-0.905c0.458-0.604,0.687-1.403,0.687-2.396V8.834H151.707z M159.829,5.689
	c-0.998,1.121-1.83,2.399-2.495,3.835s-0.998,3.054-0.998,4.854v0.896h-0.369v-0.896c0-1.649,0.305-3.206,0.916-4.669
	s1.445-2.803,2.502-4.02h-5.913V5.32h6.357V5.689z M162.125,8.786h-0.588V7.897h0.588V8.786z M162.125,15.273h-0.588v-0.889h0.588
	V15.273z M169.891,11.76c0,1.144-0.264,2.039-0.793,2.687s-1.271,0.971-2.229,0.971c-0.953,0-1.697-0.325-2.235-0.974
	c-0.538-0.65-0.807-1.544-0.807-2.684V8.834c0-1.139,0.266-2.034,0.796-2.683c0.531-0.649,1.275-0.974,2.232-0.974
	c0.953,0,1.696,0.325,2.232,0.974c0.535,0.649,0.803,1.544,0.803,2.683v2.926H169.891z M169.522,8.834
	c0-1.002-0.23-1.801-0.69-2.396s-1.118-0.892-1.976-0.892c-0.861,0-1.52,0.297-1.976,0.892s-0.684,1.394-0.684,2.396v2.912
	c0,0.989,0.231,1.786,0.694,2.393c0.462,0.606,1.121,0.909,1.979,0.909c0.852,0,1.508-0.302,1.965-0.905
	c0.459-0.604,0.688-1.403,0.688-2.396V8.834z M177.417,7.781c0,0.556-0.167,1.042-0.503,1.456c-0.334,0.415-0.771,0.707-1.309,0.875
	c0.619,0.173,1.125,0.483,1.514,0.93c0.391,0.447,0.585,0.971,0.585,1.572c0,0.875-0.296,1.561-0.889,2.058
	s-1.329,0.745-2.208,0.745c-0.939,0-1.715-0.247-2.328-0.741c-0.612-0.495-0.919-1.182-0.919-2.062c0-0.602,0.199-1.127,0.599-1.576
	c0.398-0.449,0.924-0.758,1.575-0.926c-0.569-0.168-1.028-0.46-1.374-0.875s-0.52-0.9-0.52-1.456c0-0.83,0.277-1.471,0.834-1.924
	s1.262-0.68,2.119-0.68c0.807,0,1.479,0.228,2.017,0.684S177.417,6.957,177.417,7.781z M177.329,12.648
	c0-0.697-0.266-1.264-0.797-1.699c-0.53-0.435-1.176-0.653-1.938-0.653c-0.811,0-1.491,0.218-2.041,0.653
	c-0.549,0.435-0.823,1.001-0.823,1.699c0,0.733,0.273,1.317,0.82,1.75s1.233,0.649,2.058,0.649c0.766,0,1.41-0.218,1.935-0.653
	C177.067,13.96,177.329,13.378,177.329,12.648z M177.048,7.747c0-0.647-0.239-1.176-0.718-1.586s-1.057-0.615-1.736-0.615
	c-0.742,0-1.359,0.197-1.85,0.591c-0.489,0.394-0.734,0.931-0.734,1.61c0,0.661,0.247,1.189,0.742,1.586
	c0.494,0.396,1.113,0.595,1.855,0.595c0.684,0,1.262-0.199,1.732-0.598C176.813,8.931,177.048,8.403,177.048,7.747z"/>
</svg>
